<svg width="157" height="74" viewBox="0 0 157 74" fill="none" xmlns="http://www.w3.org/2000/svg">
<mask id="path-1-outside-1_278_1018" maskUnits="userSpaceOnUse" x="-1" y="-1" width="159" height="76" fill="black">
<rect fill="white" x="-1" y="-1" width="159" height="76"/>
<path d="M0.3 36.6C0.3 32.4 0.666667 28.1333 1.4 23.8C2.2 19.4667 3.56667 15.5333 5.5 12C7.5 8.46666 10.2 5.59999 13.6 3.4C17 1.13333 21.3333 -2.86102e-06 26.6 -2.86102e-06C31.8667 -2.86102e-06 36.2 1.13333 39.6 3.4C43 5.59999 45.6667 8.46666 47.6 12C49.6 15.5333 50.9667 19.4667 51.7 23.8C52.5 28.1333 52.9 32.4 52.9 36.6C52.9 40.8 52.5 45.0667 51.7 49.4C50.9667 53.7333 49.6 57.6667 47.6 61.2C45.6667 64.7333 43 67.6333 39.6 69.9C36.2 72.1 31.8667 73.2 26.6 73.2C21.3333 73.2 17 72.1 13.6 69.9C10.2 67.6333 7.5 64.7333 5.5 61.2C3.56667 57.6667 2.2 53.7333 1.4 49.4C0.666667 45.0667 0.3 40.8 0.3 36.6ZM15.3 36.6C15.3 38.4667 15.3667 40.7 15.5 43.3C15.7 45.9 16.1667 48.4 16.9 50.8C17.6333 53.2 18.7333 55.2333 20.2 56.9C21.7333 58.5667 23.8667 59.4 26.6 59.4C29.2667 59.4 31.3667 58.5667 32.9 56.9C34.4333 55.2333 35.5667 53.2 36.3 50.8C37.0333 48.4 37.4667 45.9 37.6 43.3C37.8 40.7 37.9 38.4667 37.9 36.6C37.9 34.7333 37.8 32.5 37.6 29.9C37.4667 27.3 37.0333 24.8 36.3 22.4C35.5667 20 34.4333 17.9667 32.9 16.3C31.3667 14.6333 29.2667 13.8 26.6 13.8C23.8667 13.8 21.7333 14.6333 20.2 16.3C18.7333 17.9667 17.6333 20 16.9 22.4C16.1667 24.8 15.7 27.3 15.5 29.9C15.3667 32.5 15.3 34.7333 15.3 36.6ZM93.4797 18L79.2797 30.5L70.7797 20.7L93.8797 1.2H107.88V72H93.4797V18ZM137.959 63.4C137.959 62.1333 138.193 60.9333 138.659 59.8C139.126 58.6667 139.759 57.7 140.559 56.9C141.426 56.0333 142.426 55.3667 143.559 54.9C144.693 54.4333 145.893 54.2 147.159 54.2C148.426 54.2 149.626 54.4333 150.759 54.9C151.893 55.3667 152.859 56.0333 153.659 56.9C154.526 57.7 155.193 58.6667 155.659 59.8C156.126 60.9333 156.359 62.1333 156.359 63.4C156.359 64.6667 156.126 65.8667 155.659 67C155.193 68.1333 154.526 69.1333 153.659 70C152.859 70.8 151.893 71.4333 150.759 71.9C149.626 72.3667 148.426 72.6 147.159 72.6C145.893 72.6 144.693 72.3667 143.559 71.9C142.426 71.4333 141.426 70.8 140.559 70C139.759 69.1333 139.126 68.1333 138.659 67C138.193 65.8667 137.959 64.6667 137.959 63.4Z"/>
</mask>
<path d="M1.4 23.8L0.416618 23.6185L0.415264 23.6258L0.41402 23.6331L1.4 23.8ZM5.5 12L4.62974 11.5074L4.6262 11.5137L4.62274 11.52L5.5 12ZM13.6 3.4L14.1433 4.23965L14.1547 4.23205L13.6 3.4ZM39.6 3.4L39.0452 4.23212L39.0568 4.23956L39.6 3.4ZM47.6 12L46.7227 12.48L46.7262 12.4863L46.7297 12.4926L47.6 12ZM51.7 23.8L50.714 23.9669L50.7153 23.9742L50.7166 23.9815L51.7 23.8ZM51.7 49.4L50.7166 49.2185L50.7153 49.2258L50.714 49.2331L51.7 49.4ZM47.6 61.2L46.7297 60.7074L46.7262 60.7137L46.7227 60.72L47.6 61.2ZM39.6 69.9L40.1433 70.7396L40.1547 70.732L39.6 69.9ZM13.6 69.9L13.0452 70.7321L13.0567 70.7396L13.6 69.9ZM5.5 61.2L4.62274 61.68L4.6262 61.6863L4.62974 61.6926L5.5 61.2ZM1.4 49.4L0.41402 49.5669L0.415264 49.5742L0.416618 49.5815L1.4 49.4ZM15.5 43.3L14.5013 43.3512L14.502 43.364L14.5029 43.3767L15.5 43.3ZM16.9 50.8L17.8564 50.5078L16.9 50.8ZM20.2 56.9L19.4493 57.5606L19.4566 57.5689L19.4641 57.5771L20.2 56.9ZM36.3 50.8L35.3437 50.5078L36.3 50.8ZM37.6 43.3L36.6029 43.2233L36.602 43.236L36.6013 43.2488L37.6 43.3ZM37.6 29.9L36.6013 29.9512L36.602 29.964L36.6029 29.9767L37.6 29.9ZM36.3 22.4L35.3437 22.6922L36.3 22.4ZM32.9 16.3L33.6359 15.6229V15.6229L32.9 16.3ZM20.2 16.3L19.4641 15.6229L19.4566 15.6311L19.4493 15.6394L20.2 16.3ZM16.9 22.4L17.8564 22.6922L16.9 22.4ZM15.5 29.9L14.5029 29.8233L14.502 29.836L14.5013 29.8488L15.5 29.9ZM1.3 36.6C1.3 32.4584 1.66155 28.2476 2.38598 23.9669L0.41402 23.6331C-0.328213 28.0191 -0.7 32.3416 -0.7 36.6H1.3ZM2.38338 23.9815C3.1659 19.7429 4.4995 15.9118 6.37726 12.48L4.62274 11.52C2.63383 15.1549 1.2341 19.1904 0.416618 23.6185L2.38338 23.9815ZM6.37026 12.4926C8.29104 9.09921 10.879 6.35173 14.1433 4.23956L13.0567 2.56042C9.521 4.84826 6.70896 7.83411 4.62974 11.5074L6.37026 12.4926ZM14.1547 4.23205C17.349 2.10254 21.4742 0.999997 26.6 0.999997V-1C21.1925 -1 16.651 0.164123 13.0453 2.56795L14.1547 4.23205ZM26.6 0.999997C31.7258 0.999997 35.851 2.10254 39.0453 4.23205L40.1547 2.56795C36.549 0.164123 32.0075 -1 26.6 -1V0.999997ZM39.0568 4.23956C42.3181 6.34983 44.8696 9.09324 46.7227 12.48L48.4773 11.52C46.4637 7.84008 43.6819 4.85016 40.1433 2.56042L39.0568 4.23956ZM46.7297 12.4926C48.668 15.9169 49.9985 19.7385 50.714 23.9669L52.686 23.6331C51.9349 19.1948 50.532 15.1498 48.4703 11.5074L46.7297 12.4926ZM50.7166 23.9815C51.5061 28.2579 51.9 32.4638 51.9 36.6H53.9C53.9 32.3362 53.4939 28.0087 52.6834 23.6185L50.7166 23.9815ZM51.9 36.6C51.9 40.7362 51.5061 44.9421 50.7166 49.2185L52.6834 49.5815C53.4939 45.1913 53.9 40.8638 53.9 36.6H51.9ZM50.714 49.2331C49.9985 53.4615 48.668 57.2831 46.7297 60.7074L48.4703 61.6926C50.532 58.0502 51.9349 54.0052 52.686 49.5669L50.714 49.2331ZM46.7227 60.72C44.8681 64.1095 42.313 66.8895 39.0453 69.0679L40.1547 70.732C43.687 68.3772 46.4652 65.3571 48.4773 61.68L46.7227 60.72ZM39.0568 69.0604C35.8606 71.1285 31.731 72.2 26.6 72.2V74.2C32.0023 74.2 36.5394 73.0715 40.1433 70.7396L39.0568 69.0604ZM26.6 72.2C21.469 72.2 17.3394 71.1285 14.1433 69.0604L13.0567 70.7396C16.6606 73.0715 21.1977 74.2 26.6 74.2V72.2ZM14.1547 69.0679C10.8841 66.8876 8.29259 64.1035 6.37026 60.7074L4.62974 61.6926C6.70741 65.3631 9.51586 68.3791 13.0453 70.732L14.1547 69.0679ZM6.37726 60.72C4.4995 57.2882 3.1659 53.4571 2.38338 49.2185L0.416618 49.5815C1.2341 54.0096 2.63383 58.0451 4.62274 61.68L6.37726 60.72ZM2.38598 49.2331C1.66155 44.9524 1.3 40.7416 1.3 36.6H-0.7C-0.7 40.8584 -0.328213 45.1809 0.41402 49.5669L2.38598 49.2331ZM14.3 36.6C14.3 38.4889 14.3674 40.7402 14.5013 43.3512L16.4987 43.2488C16.3659 40.6598 16.3 38.4444 16.3 36.6H14.3ZM14.5029 43.3767C14.7084 46.047 15.1881 48.6194 15.9436 51.0922L17.8564 50.5078C17.1453 48.1806 16.6917 45.753 16.4971 43.2233L14.5029 43.3767ZM15.9436 51.0922C16.7131 53.6105 17.8771 55.7741 19.4493 57.5606L20.9507 56.2394C19.5896 54.6926 18.5535 52.7895 17.8564 50.5078L15.9436 51.0922ZM19.4641 57.5771C21.2254 59.4915 23.6497 60.4 26.6 60.4V58.4C24.0837 58.4 22.2413 57.6418 20.9359 56.2229L19.4641 57.5771ZM26.6 60.4C29.4922 60.4 31.8794 59.4863 33.6359 57.5771L32.1641 56.2229C30.8539 57.647 29.0412 58.4 26.6 58.4V60.4ZM33.6359 57.5771C35.2811 55.7888 36.4841 53.6197 37.2564 51.0922L35.3437 50.5078C34.6493 52.7803 33.5855 54.6779 32.1641 56.2229L33.6359 57.5771ZM37.2564 51.0922C38.0145 48.611 38.4613 46.0299 38.5987 43.3512L36.6013 43.2488C36.472 45.7701 36.0522 48.189 35.3437 50.5078L37.2564 51.0922ZM38.5971 43.3767C38.7983 40.7603 38.9 38.5 38.9 36.6H36.9C36.9 38.4333 36.8017 40.6397 36.6029 43.2233L38.5971 43.3767ZM38.9 36.6C38.9 34.7 38.7983 32.4397 38.5971 29.8233L36.6029 29.9767C36.8017 32.5603 36.9 34.7667 36.9 36.6H38.9ZM38.5987 29.8488C38.4613 27.1701 38.0145 24.589 37.2564 22.1078L35.3437 22.6922C36.0522 25.011 36.472 27.4299 36.6013 29.9512L38.5987 29.8488ZM37.2564 22.1078C36.4841 19.5803 35.2811 17.4112 33.6359 15.6229L32.1641 16.9771C33.5855 18.5221 34.6493 20.4197 35.3437 22.6922L37.2564 22.1078ZM33.6359 15.6229C31.8794 13.7137 29.4922 12.8 26.6 12.8V14.8C29.0412 14.8 30.8539 15.553 32.1641 16.9771L33.6359 15.6229ZM26.6 12.8C23.6497 12.8 21.2254 13.7085 19.4641 15.6229L20.9359 16.9771C22.2413 15.5582 24.0837 14.8 26.6 14.8V12.8ZM19.4493 15.6394C17.8771 17.4259 16.7131 19.5895 15.9436 22.1078L17.8564 22.6922C18.5535 20.4105 19.5896 18.5074 20.9507 16.9606L19.4493 15.6394ZM15.9436 22.1078C15.1881 24.5806 14.7084 27.153 14.5029 29.8233L16.4971 29.9767C16.6917 27.447 17.1453 25.0194 17.8564 22.6922L15.9436 22.1078ZM14.5013 29.8488C14.3674 32.4598 14.3 34.7111 14.3 36.6H16.3C16.3 34.7556 16.3659 32.5402 16.4987 29.9512L14.5013 29.8488ZM93.4797 18H94.4797V15.7875L92.8189 17.2494L93.4797 18ZM79.2797 30.5L78.5243 31.1552L79.1843 31.9162L79.9404 31.2506L79.2797 30.5ZM70.7797 20.7L70.1346 19.9359L69.3602 20.5896L70.0243 21.3552L70.7797 20.7ZM93.8797 1.2V0.2H93.514L93.2346 0.435861L93.8797 1.2ZM107.88 1.2H108.88V0.2H107.88V1.2ZM107.88 72V73H108.88V72H107.88ZM93.4797 72H92.4797V73H93.4797V72ZM92.8189 17.2494L78.6189 29.7494L79.9404 31.2506L94.1404 18.7506L92.8189 17.2494ZM80.0351 29.8448L71.5351 20.0448L70.0243 21.3552L78.5243 31.1552L80.0351 29.8448ZM71.4247 21.4641L94.5247 1.96414L93.2346 0.435861L70.1346 19.9359L71.4247 21.4641ZM93.8797 2.2H107.88V0.2H93.8797V2.2ZM106.88 1.2V72H108.88V1.2H106.88ZM107.88 71H93.4797V73H107.88V71ZM94.4797 72V18H92.4797V72H94.4797ZM138.659 59.8L137.735 59.4193L138.659 59.8ZM140.559 56.9L141.266 57.6071L140.559 56.9ZM143.559 54.9L143.179 53.9753L143.559 54.9ZM150.759 54.9L151.14 53.9753L150.759 54.9ZM153.659 56.9L152.925 57.5783L152.952 57.6077L152.981 57.6348L153.659 56.9ZM155.659 59.8L154.735 60.1807L155.659 59.8ZM155.659 67L154.735 66.6192L155.659 67ZM153.659 70L154.366 70.7071L153.659 70ZM150.759 71.9L151.14 72.8247L150.759 71.9ZM143.559 71.9L143.179 72.8247L143.559 71.9ZM140.559 70L139.825 70.6783L139.852 70.7077L139.881 70.7348L140.559 70ZM138.659 67L137.735 67.3808L138.659 67ZM138.959 63.4C138.959 62.2595 139.169 61.1892 139.584 60.1807L137.735 59.4193C137.217 60.6774 136.959 62.0072 136.959 63.4H138.959ZM139.584 60.1807C140.005 59.1592 140.567 58.3062 141.266 57.6071L139.852 56.1929C138.951 57.0938 138.247 58.1741 137.735 59.4193L139.584 60.1807ZM141.266 57.6071C142.04 56.8338 142.929 56.2411 143.94 55.8247L143.179 53.9753C141.923 54.4923 140.812 55.2329 139.852 56.1929L141.266 57.6071ZM143.94 55.8247C144.949 55.4094 146.019 55.2 147.159 55.2V53.2C145.767 53.2 144.437 53.4573 143.179 53.9753L143.94 55.8247ZM147.159 55.2C148.3 55.2 149.37 55.4094 150.379 55.8247L151.14 53.9753C149.882 53.4573 148.552 53.2 147.159 53.2V55.2ZM150.379 55.8247C151.383 56.2382 152.227 56.8227 152.925 57.5783L154.394 56.2217C153.492 55.2439 152.403 54.4952 151.14 53.9753L150.379 55.8247ZM152.981 57.6348C153.737 58.3322 154.321 59.1765 154.735 60.1807L156.584 59.4193C156.064 58.1568 155.315 57.0678 154.338 56.1652L152.981 57.6348ZM154.735 60.1807C155.15 61.1892 155.359 62.2595 155.359 63.4H157.359C157.359 62.0072 157.102 60.6774 156.584 59.4193L154.735 60.1807ZM155.359 63.4C155.359 64.5405 155.15 65.6108 154.735 66.6192L156.584 67.3808C157.102 66.1226 157.359 64.7928 157.359 63.4H155.359ZM154.735 66.6192C154.318 67.6305 153.726 68.5196 152.952 69.2929L154.366 70.7071C155.327 69.7471 156.067 68.6362 156.584 67.3808L154.735 66.6192ZM152.952 69.2929C152.253 69.992 151.4 70.5547 150.379 70.9753L151.14 72.8247C152.385 72.312 153.466 71.608 154.366 70.7071L152.952 69.2929ZM150.379 70.9753C149.37 71.3906 148.3 71.6 147.159 71.6V73.6C148.552 73.6 149.882 73.3428 151.14 72.8247L150.379 70.9753ZM147.159 71.6C146.019 71.6 144.949 71.3906 143.94 70.9753L143.179 72.8247C144.437 73.3428 145.767 73.6 147.159 73.6V71.6ZM143.94 70.9753C142.912 70.552 142.014 69.9816 141.238 69.2652L139.881 70.7348C140.838 71.6184 141.94 72.3147 143.179 72.8247L143.94 70.9753ZM141.294 69.3217C140.578 68.5456 140.007 67.6473 139.584 66.6192L137.735 67.3808C138.245 68.6194 138.941 69.7211 139.825 70.6783L141.294 69.3217ZM139.584 66.6192C139.169 65.6108 138.959 64.5405 138.959 63.4H136.959C136.959 64.7928 137.217 66.1226 137.735 67.3808L139.584 66.6192Z" fill="black" mask="url(#path-1-outside-1_278_1018)"/>
</svg>
